<svg width="311" height="69" viewBox="0 0 311 69" fill="none" xmlns="http://www.w3.org/2000/svg">
<path d="M4.7 22.77C4.7 21.65 4.1 21.13 3.06 21.13H0V14.93H7.09C10.45 14.93 11.87 16.35 11.87 19.71V44.88C11.87 46 12.47 46.52 13.51 46.52H16.57V52.72H9.48C6.12 52.72 4.7 51.3 4.7 47.94V22.77ZM4.85 0H11.35V7.53998H4.85V0Z" fill="white"/>
<path d="M37.8603 14.04C47.2703 14.04 49.9603 19.9401 49.9603 19.9401H50.1103V18.7501C50.1103 16.5101 51.3003 14.9401 54.2903 14.9401H61.3103V21.14H58.3203C57.3503 21.14 56.6803 21.66 56.6803 22.63V51.16C56.6803 63.63 47.2003 68.41 37.6403 68.41C33.0803 68.41 28.4503 67.1401 24.7203 65.2701L27.1803 59.4401C27.1803 59.4401 31.8103 61.98 37.4903 61.98C44.0603 61.98 49.4403 59.07 49.4403 51.45V48.91C49.4403 47.72 49.5903 46.5201 49.5903 46.5201H49.4403C47.2003 50.1801 43.6903 52.2701 38.1603 52.2701C27.7003 52.2701 21.2803 43.8301 21.2803 32.9301C21.2803 22.0301 27.3303 14.04 37.8603 14.04ZM49.6503 33.0001C49.6503 23.1401 44.8003 20.3101 38.9703 20.3101C32.4003 20.3101 28.6603 25.0901 28.6603 32.7801C28.6603 40.4701 32.7703 46.0001 39.5603 46.0001C44.7903 46.0001 49.6403 42.86 49.6403 33.01L49.6503 33.0001Z" fill="white"/>
<path d="M82.8102 14.0403C91.5502 14.0403 94.4602 19.8703 94.4602 19.8703H94.6102C94.6102 19.8703 94.4602 18.7503 94.4602 17.3303V7.85025C94.4602 6.73025 93.8602 6.21027 92.8202 6.21027H89.7602V0.0102539H96.9302C100.29 0.0102539 101.71 1.43025 101.71 4.79025V44.8903C101.71 46.0103 102.31 46.5303 103.35 46.5303H106.41V52.7303H99.4602C96.1702 52.7303 94.8302 51.2403 94.8302 48.7003C94.8302 47.5803 94.9002 46.7603 94.9002 46.7603H94.7502C94.7502 46.7603 91.6102 53.6302 82.3502 53.6302C72.1202 53.6302 65.7002 45.5603 65.7002 33.8403C65.7002 22.1203 72.7902 14.0503 82.8002 14.0503L82.8102 14.0403ZM94.6802 33.7503C94.6802 27.0303 91.1702 20.3103 83.9302 20.3103C78.0302 20.3103 73.1002 25.2403 73.1002 33.8303C73.1002 42.4203 77.5102 47.3503 83.7802 47.3503C89.3802 47.3503 94.6802 43.3903 94.6802 33.7603V33.7503Z" fill="white"/>
<path d="M133.66 29.2003H135.3V28.8303C135.3 22.1803 132.84 19.7903 126.94 19.7903C125.15 19.7903 120.74 20.2403 120.74 22.7003V24.8703H113.94V21.1403C113.94 14.9403 123.35 14.0503 127.01 14.0503C139.26 14.0503 142.54 20.4703 142.54 28.8403V44.9003C142.54 46.0203 143.14 46.5403 144.18 46.5403H147.24V52.7403H140.44C137.08 52.7403 135.74 51.1003 135.74 48.4103C135.74 47.1403 135.89 46.1703 135.89 46.1703H135.74C135.74 46.1703 132.75 53.6403 123.72 53.6403C117.22 53.6403 110.88 49.6803 110.88 42.1403C110.88 29.9703 127.31 29.2203 133.66 29.2203V29.2003ZM125.29 47.7903C131.41 47.7903 135.37 41.3703 135.37 35.7703V34.5003H133.5C128.05 34.5003 118.19 34.8003 118.19 41.7403C118.19 44.8003 120.5 47.7903 125.28 47.7903H125.29Z" fill="white"/>
<path d="M165.19 4.62997H160.34V0H182.52C191.85 0 198.73 6.11999 198.73 15.83C198.73 25.54 191.86 31.89 182.52 31.89H170.42V52.5H165.19V4.62997ZM181.84 27.25C188.79 27.25 193.34 22.99 193.34 15.82C193.34 8.64998 188.79 4.62 181.92 4.62H170.42V27.25H181.85H181.84Z" fill="white"/>
<path d="M220.45 14.04C230.83 14.04 236.21 22.03 236.21 31.36C236.21 32.26 236.06 33.9001 236.06 33.9001H207.23C207.38 43.3801 214.03 48.8401 221.79 48.8401C228.66 48.8401 233.07 44.2101 233.07 44.2101L235.53 48.0201C235.53 48.0201 230.08 53.4001 221.57 53.4001C210.44 53.4001 201.93 45.33 201.93 33.76C201.93 21.44 210.37 14.05 220.45 14.05V14.04ZM230.98 29.8701C230.68 22.1001 225.9 18.29 220.38 18.29C214.18 18.29 208.73 22.3201 207.46 29.8701H230.98Z" fill="white"/>
<path d="M246.36 20.98C246.36 19.94 245.76 19.3401 244.72 19.3401H241.58V14.9301H246.81C249.95 14.9301 251.36 16.2001 251.36 19.1901V21.73C251.36 23.3 251.21 24.57 251.21 24.57H251.36C253.15 18.89 257.33 14.5601 263.23 14.5601C264.27 14.5601 265.25 14.7801 265.25 14.7801V19.7801C265.25 19.7801 264.35 19.63 263.38 19.63C258.08 19.63 254.12 23.8101 252.48 29.3401C251.73 31.7301 251.44 34.27 251.44 36.66V52.4901H246.36V20.98Z" fill="white"/>
<path d="M273.76 20.98C273.76 19.94 273.16 19.34 272.12 19.34H268.98V14.93H274.28C277.49 14.93 278.84 16.27 278.84 19.34V37.49C278.84 43.39 279.81 48.62 287.05 48.62C295.56 48.62 300.87 41.08 300.87 32.94V14.94H305.95V46.45C305.95 47.57 306.55 48.09 307.59 48.09H310.73V52.5H305.58C302.44 52.5 301.02 51.16 301.02 48.32V46.6C301.02 45.11 301.17 43.91 301.17 43.91H301.02C299.53 47.57 294.6 53.39 286.38 53.39C277.49 53.39 273.76 48.61 273.76 38.83V20.98ZM292.43 0H298.11L291.61 8.88998H287.2L292.43 0Z" fill="white"/>
</svg>
